<?xml version="1.0" encoding="UTF-8"?><svg xmlns="http://www.w3.org/2000/svg" viewBox="0 0 170.39 39.85"><defs><style>.d{fill:#fff;}</style></defs><g id="a"/><g id="b"><g id="c"><path class="d" d="M0,10.56l2.81,3.71s7.39-2.9,8.18-3.2c.55-.2,.99-.14,1.23,.1,.33,.33,.86,.84,1.53,1.69,.66,.86,.45,1.49-.61,1.88-1.06,.4-7.56,3.12-7.56,3.12l3.41,4.44s7.67-3.37,8.53-3.77c.86-.4,1.21,0,1.41,.2,.2,.2,.98,1.08,1.71,2.01,.73,.93,.45,1.51-.21,1.86-.73,.38-8.16,3.96-8.16,3.96l4.2,5.58,15.46-8.26s-13.02-13.42-13.61-14.14c-.6-.73-.2-1.39,.26-1.65,.46-.27,1.45-.6,2.12-.86,.66-.26,.93-.07,1.32,.33,.4,.4,14.19,14.06,14.19,14.06l11.58-6.12-4.36-3.79s-4.88,2.26-5.47,2.59c-.53,.3-1.4,.65-1.86,.18-.46-.46-1.6-1.54-2.2-2.21-.57-.63,.09-1.12,.49-1.31,.59-.28,5.39-2.33,5.39-2.33l-3.74-3.25s-4.59,1.88-6.07,2.49c-.52,.22-1.11-.02-1.31-.2-.22-.2-1.39-1.34-1.82-1.93-.34-.47,.18-.87,.33-.94,.4-.2,5.62-2.2,5.62-2.2l-3.1-2.64L0,10.56Z"/><path class="d" d="M165.16,21.01c-2.16,0-5.11,.25-6.05,2.23h-.05v-1.91h-4.31v13.09h4.47v-5.79c0-2.95,1.18-5.07,4.26-4.9,2.16,.12,2.45,1.49,2.45,4.06v6.63h4.47v-8.54c0-2.84-2.03-4.86-5.23-4.86m-21.09,11.18c-1.72,.09-2.74-.46-2.65-1.94,.08-1.31,2.14-1.81,2.87-1.81s3.33,.05,3.93,.08c0,1.61-1.13,3.52-4.15,3.68m8.13-6.11c0-4.18-3.38-5.07-6.52-5.07-2.03,0-4.93,.2-6.61,.88v3.03c1.3-.74,4.06-1.38,5.59-1.38,2.68,0,3.54,.94,3.57,2.81-.61-.11-3.21-.18-3.97-.1-2.43,.27-7.16,.68-7.07,4.51,.07,2.97,3.74,3.96,6.45,3.96,1.2,0,3.61-.71,4.75-2.3,0,.65,.08,1.31,.1,1.99h3.99c-.21-1.08-.26-2.15-.26-3.23v-5.1Zm-21.4,8.34h4.38V15.39h-4.38v19.02Zm-10.05-2.35c-2.28,0-4.12-1.23-4.12-4.2,0-2.05,1.25-4.19,3.77-4.19,2.72,0,3.65,1.85,3.78,3.65,.17,2.54-.85,4.73-3.43,4.73m2.07-11.05c-2.15-.06-5.12,.34-6.33,2.09h-.05v-1.77h-4.19v18.52h4.29l.09-7.09,.14,.09c.89,1.63,4.27,1.79,5.92,1.79,4.08,0,6.26-3.36,6.26-7.41,0-3.31-2.87-6.13-6.13-6.21m-23.87,5.51c.1-1.58,1.22-3.13,3.89-3.13,1.89,0,3.42,1.55,3.42,3.13h-7.31Zm3.07-5.51c-4.26,.06-7.46,2.72-7.46,7.24s4.36,6.47,8.88,6.47c1.76,0,4.29-.44,5.81-1.04v-2.81c-1.42,.76-3.68,1.4-4.97,1.4-2.31,0-5.02-.39-5.55-3.33h11.82v-.87c0-4.08-2.31-7.15-8.53-7.06m-10.76,11.09c-1.5,0-1.98-.93-1.89-3.12v-5.05h3.93v-2.61h-3.93v-3.65l-4.3,1.01v2.64h-2.88v2.61h2.8v5.58c0,3.26,.68,4.69,4.91,5.12,1.18,.12,2.78-.15,3.67-.26l-.16-2.55c-.47,.08-1.68,.27-2.15,.27m-11.76-.09c-1.85,0-2.33-.49-2.25-3.03v-5.05h3.4v-2.61h-3.4v-3.73l-4.3,1.1v2.73l-3.49-.09v2.61h3.41v5.58c0,3.26,1.03,5.12,5.26,5.12,1.18,0,2.34-.15,3.23-.26l-.07-2.55c-.47,.08-1.32,.18-1.8,.18m-20.72-5.49h8.04v-2.68h-8.04v-4.49h8.84v-2.68h-13.47v17.74h13.58v-2.77h-8.95v-5.12Z"/></g></g></svg>