<svg xmlns="http://www.w3.org/2000/svg" viewBox="0 0 1255.77 313.94"><defs><style>.b7e95f62-cdbc-4a06-a1d5-5508b04403ec{fill:#fff;}</style></defs><g id="e175222b-56a3-4a87-9d03-ac2a621ab54a" data-name="Warstwa 2"><g id="e6161932-5273-4e21-9a6b-c25c30109ef4" data-name="Warstwa 1"><g id="bbba2528-3d49-4e8f-84a7-1ccf2d4f0bda" data-name="Layer 2"><g id="afa5aaa9-659e-41e4-ab29-0e39b92051ce" data-name="blog post feature"><path class="b7e95f62-cdbc-4a06-a1d5-5508b04403ec" d="M77.26,109.8a36.23,36.23,0,0,0-9-5.75c-3.35-1.55-6.78-2.92-10.22-4.12l-10.3-3.35a67.65,67.65,0,0,1-8.58-3.44,20.78,20.78,0,0,1-6.36-4.46A8.64,8.64,0,0,1,30.3,82.5a11,11,0,0,1,4-9.1A21,21,0,0,1,47.13,70a30,30,0,0,1,9.19,1.11,50.62,50.62,0,0,1,6.86,2.49c2.06,1,3.78,1.72,5.33,2.58a10.87,10.87,0,0,0,4.29,1.11A6.6,6.6,0,0,0,76,76.49,6.38,6.38,0,0,0,78.29,74l6.36-10a49.41,49.41,0,0,0-16-10.31A56.43,56.43,0,0,0,47,49.71a58.23,58.23,0,0,0-18.8,2.83,42.73,42.73,0,0,0-13.9,7.55A32,32,0,0,0,5.75,71.25a33,33,0,0,0-2.4,13.57,31.08,31.08,0,0,0,2.4,13.05A26.85,26.85,0,0,0,12.1,107a34.45,34.45,0,0,0,9.1,6.09,91.43,91.43,0,0,0,10.39,4.21l10.3,3.34a55.45,55.45,0,0,1,9.1,3.44,22.12,22.12,0,0,1,6.44,4.46,9.36,9.36,0,0,1,2.49,6.61,13,13,0,0,1-1,5.15,11.17,11.17,0,0,1-3.52,4.47,18.82,18.82,0,0,1-5.75,3.09A28.67,28.67,0,0,1,41,149a32.62,32.62,0,0,1-10.38-1.46,51.28,51.28,0,0,1-7-3.09c-2.06-1.12-3.87-2.15-5.32-3.09a9.15,9.15,0,0,0-4.9-1.46,7.42,7.42,0,0,0-4.29,1,8.6,8.6,0,0,0-2.83,2.83L0,154.52a48.74,48.74,0,0,0,7.73,5.67,71.77,71.77,0,0,0,20.34,7.21,66.32,66.32,0,0,0,11.59,1,64.81,64.81,0,0,0,20.43-2.83,41.9,41.9,0,0,0,14.43-8,34.64,34.64,0,0,0,8.58-12.11,37.77,37.77,0,0,0,2.75-15.37,26.83,26.83,0,0,0-2.41-11.84A28.05,28.05,0,0,0,77.26,109.8Z"/><path class="b7e95f62-cdbc-4a06-a1d5-5508b04403ec" d="M171.69,105.94a21.92,21.92,0,0,0-4.12-3.87,30.76,30.76,0,0,0,8.59-7.72L212,51.42H186.37a11.65,11.65,0,0,0-5.66,1.2,14.83,14.83,0,0,0-4,3.61L148.09,91.51a9.49,9.49,0,0,1-3.35,3,13.3,13.3,0,0,1-4.47.77h-5.15V0H107.48V166.63h27.64V113.92h6.27a12.81,12.81,0,0,1,5.06.77,9.29,9.29,0,0,1,3.27,3.52l29.36,43.61a9,9,0,0,0,3.95,3.86,13.63,13.63,0,0,0,5.58,1h21.71l-34.93-55.88A51.83,51.83,0,0,0,171.69,105.94Z"/><path class="b7e95f62-cdbc-4a06-a1d5-5508b04403ec" d="M371.8,53.65a8.69,8.69,0,0,0-2.92,3.7L306.13,204.83h20.69a9.46,9.46,0,0,0,6-1.54,11.49,11.49,0,0,0,3.17-4.38L398.67,52.2H376.44A8.56,8.56,0,0,0,371.8,53.65Z"/><path class="b7e95f62-cdbc-4a06-a1d5-5508b04403ec" d="M456.1,55.37a47.75,47.75,0,0,0-12.79,16.14l-1.8-13a8.63,8.63,0,0,0-2.23-5.5,8.62,8.62,0,0,0-5.92-1.54H417.13v115h27.64V95.81a62.75,62.75,0,0,1,4.12-8.59A28.52,28.52,0,0,1,454,81.13a21.35,21.35,0,0,1,6.44-3.87A24.53,24.53,0,0,1,469,75.89a40.92,40.92,0,0,1,6.44.6,23.2,23.2,0,0,0,5,.51,4,4,0,0,0,2.83-.77,4.9,4.9,0,0,0,1.63-2.92l1.72-20.69a21.06,21.06,0,0,0-12.79-3.43A26.68,26.68,0,0,0,456.1,55.37Z"/><path class="b7e95f62-cdbc-4a06-a1d5-5508b04403ec" d="M528,5.49a18.31,18.31,0,0,0-5.67-3.77,16.66,16.66,0,0,0-14-.35,20.58,20.58,0,0,0-5.58,3.78,19.11,19.11,0,0,0-3.78,5.58,17.77,17.77,0,0,0-1,7.3,16,16,0,0,0,1.38,6.69,19,19,0,0,0,3.77,5.5A17.39,17.39,0,0,0,508.64,34a15.54,15.54,0,0,0,6.78,1.37A15.9,15.9,0,0,0,522.29,34,17.34,17.34,0,0,0,528,30.22a17.68,17.68,0,0,0,4.29-5.5A14.93,14.93,0,0,0,533.8,18,17.24,17.24,0,0,0,528,5.49Z"/><rect class="b7e95f62-cdbc-4a06-a1d5-5508b04403ec" x="501.69" y="51.59" width="27.81" height="115.03"/><path class="b7e95f62-cdbc-4a06-a1d5-5508b04403ec" d="M626.68,109.8a36.2,36.2,0,0,0-8.58-5.75c-3.35-1.55-6.78-2.92-10.22-4.12l-10.3-3.35A56.28,56.28,0,0,1,589,93.14a20.78,20.78,0,0,1-6.36-4.46,8.6,8.6,0,0,1-2.49-6.18,11,11,0,0,1,3.61-9.1A21,21,0,0,1,596.55,70a30,30,0,0,1,9.19,1.11,52.46,52.46,0,0,1,6.86,2.58c2.06.94,3.78,1.71,5.33,2.57a11,11,0,0,0,4.37,1.12,6.64,6.64,0,0,0,3.09-.77,6.77,6.77,0,0,0,2.41-2.49l6.27-10a48,48,0,0,0-16-10.39,62.16,62.16,0,0,0-40.35-1.12,43.92,43.92,0,0,0-13.82,7.47A32.25,32.25,0,0,0,553,84.73a30.31,30.31,0,0,0,2.4,13,26.66,26.66,0,0,0,6.35,9.1,34.24,34.24,0,0,0,9.1,6.1,86.53,86.53,0,0,0,10.39,4.21l10.3,3.34a55.8,55.8,0,0,1,9.1,3.44,22.19,22.19,0,0,1,6.44,4.46,9.45,9.45,0,0,1,2.4,6.61,12.28,12.28,0,0,1-1.11,5.24,10.63,10.63,0,0,1-3.35,4.38,16.68,16.68,0,0,1-5.84,3.09,25.71,25.71,0,0,1-8.58,1.2,32.93,32.93,0,0,1-10.39-1.46,43.21,43.21,0,0,1-7-3.09l-5.32-3.09a9.07,9.07,0,0,0-4.9-1.46,7.59,7.59,0,0,0-4.29,1,8.59,8.59,0,0,0-2.92,2.92l-6.35,10.81a48.74,48.74,0,0,0,7.73,5.67,66.26,66.26,0,0,0,51.5,5.67,41.63,41.63,0,0,0,14.43-7.9,33.33,33.33,0,0,0,8.58-12.11,39.14,39.14,0,0,0,3.61-15.53,25.75,25.75,0,0,0-2.41-11.85A27.28,27.28,0,0,0,626.68,109.8Z"/><path class="b7e95f62-cdbc-4a06-a1d5-5508b04403ec" d="M740.94,136.84a9.85,9.85,0,0,0-5.32,1.55c-1.8,1-4,2.23-6.35,3.43a51,51,0,0,1-8.59,3.43A38,38,0,0,1,709,146.8a33.8,33.8,0,0,1-12.28-2.06,24.36,24.36,0,0,1-9.53-6.27,31.07,31.07,0,0,1-6.52-10.64,54.4,54.4,0,0,1-3.18-15.28h71.26a5.52,5.52,0,0,0,5.15-2.24,17.17,17.17,0,0,0,1.37-8.58,58.94,58.94,0,0,0-3.78-22.15,46.07,46.07,0,0,0-10.3-16.4,43,43,0,0,0-15.79-10,54.85,54.85,0,0,0-20-3.44,56.36,56.36,0,0,0-23.17,4.47,50.2,50.2,0,0,0-17.17,12.19,52.37,52.37,0,0,0-10.91,18,63.11,63.11,0,0,0-3.77,22.15,73.94,73.94,0,0,0,4.37,26.61,55.53,55.53,0,0,0,11.85,19.32,50.09,50.09,0,0,0,17.94,11.76,61.92,61.92,0,0,0,22.32,4,87.68,87.68,0,0,0,12.54-.95A64.61,64.61,0,0,0,732,164.31a57.32,57.32,0,0,0,12-5.84,45.19,45.19,0,0,0,10.3-9l-7.9-10.13A5.77,5.77,0,0,0,740.94,136.84ZM686.78,76.49a25.69,25.69,0,0,1,19-6.95,27.65,27.65,0,0,1,10.81,2.14,20.44,20.44,0,0,1,7.64,5.58,25.56,25.56,0,0,1,4.55,8.59A33.78,33.78,0,0,1,730.3,96H678.19A33.72,33.72,0,0,1,686.78,76.49Z"/><path class="b7e95f62-cdbc-4a06-a1d5-5508b04403ec" d="M319.69,52.2a8.1,8.1,0,0,0-7.64,5.15l-28.76,67v-2a47.33,47.33,0,0,0-2.06-6L256.42,56.74a9.41,9.41,0,0,0-2.74-3.6A7.78,7.78,0,0,0,249,51.51H224.23L270,156.07l-20.6,48.67H270a9.4,9.4,0,0,0,6-1.54,11.49,11.49,0,0,0,3.17-4.38L341.84,52.11Z"/><path class="b7e95f62-cdbc-4a06-a1d5-5508b04403ec" d="M786,151.86a17.26,17.26,0,0,1,1.29-6.61,15.16,15.16,0,0,1,3.52-5.41,17.15,17.15,0,0,1,12.11-5,16.07,16.07,0,0,1,6.69,1.37A16.76,16.76,0,0,1,815,163.62h0a17.16,17.16,0,0,1-12.1,4.81,17.67,17.67,0,0,1-6.7-1.29,15.86,15.86,0,0,1-8.58-8.58A17.89,17.89,0,0,1,786,151.86Z"/><path class="b7e95f62-cdbc-4a06-a1d5-5508b04403ec" d="M882,169a30.22,30.22,0,0,1-23.09-8.59,32.54,32.54,0,0,1-8.07-23V72.54H839.07a5.64,5.64,0,0,1-3.87-1.46,5.57,5.57,0,0,1-1.54-4.38v-11l18.54-3.09,6.27-31.5a5.69,5.69,0,0,1,2.15-3.44,6.12,6.12,0,0,1,4-1.2h14.42V52.71h30.82V72.54H879.07v62.58a12,12,0,0,0,2.58,8.59,9.08,9.08,0,0,0,7.29,3,11.9,11.9,0,0,0,3.87-.77,24.57,24.57,0,0,0,3.09-1.29l2.32-1.29a3.37,3.37,0,0,1,2-.6,2.92,2.92,0,0,1,2.06.6,9.34,9.34,0,0,1,1.72,1.89l8.58,13.48a41.18,41.18,0,0,1-14,7.64A52.08,52.08,0,0,1,882,169Z"/><path class="b7e95f62-cdbc-4a06-a1d5-5508b04403ec" d="M947.66,112.89a55,55,0,0,0,3.18,15.37A30.28,30.28,0,0,0,957.36,139a25.86,25.86,0,0,0,9.62,6.26,33.63,33.63,0,0,0,12.36,2.06,37.87,37.87,0,0,0,11.59-1.54,62.31,62.31,0,0,0,8.59-3.44l6.35-3.52a12.07,12.07,0,0,1,5.41-1.54,5.84,5.84,0,0,1,5.15,2.57l8,10.13a45.36,45.36,0,0,1-10.39,9.1,56.39,56.39,0,0,1-11.93,5.84,65.38,65.38,0,0,1-12.7,3.09,89.17,89.17,0,0,1-12.54.86,60.61,60.61,0,0,1-22.49-4,49.52,49.52,0,0,1-18-11.84,54,54,0,0,1-12-19.32,74.72,74.72,0,0,1-4.46-26.7,63.68,63.68,0,0,1,3.95-22.32,53.48,53.48,0,0,1,10.9-18.11,52.81,52.81,0,0,1,17.17-12.19A56.38,56.38,0,0,1,975.05,50a57.54,57.54,0,0,1,20.17,3.44A43.56,43.56,0,0,1,1011,63.61,46.51,46.51,0,0,1,1021.58,80a60.23,60.23,0,0,1,3.78,22.23,17.22,17.22,0,0,1-1.38,8.59,5.65,5.65,0,0,1-5.15,2.14Zm53-17.17a34.73,34.73,0,0,0-1.54-10.22,23.13,23.13,0,0,0-4.47-8.58,21.74,21.74,0,0,0-7.72-5.67A26.68,26.68,0,0,0,976,69.19a25.76,25.76,0,0,0-19,7,33.3,33.3,0,0,0-8.58,19.31Z"/><path class="b7e95f62-cdbc-4a06-a1d5-5508b04403ec" d="M1129.06,76.15a13.48,13.48,0,0,1-2.4,2.49,5.43,5.43,0,0,1-3.44.85,7.61,7.61,0,0,1-4.21-1.28l-4.8-2.92a39.05,39.05,0,0,0-6.7-2.92,34.37,34.37,0,0,0-22.4,1.29,25.75,25.75,0,0,0-9.19,7.64,34.31,34.31,0,0,0-5.41,11.93,62.66,62.66,0,0,0-1.72,16,60.26,60.26,0,0,0,1.89,16.48,33.65,33.65,0,0,0,5.67,12,24.3,24.3,0,0,0,8.58,7.47,27.3,27.3,0,0,0,11.94,2.49A28.62,28.62,0,0,0,1107.6,146a30,30,0,0,0,7-3.61c1.89-1.29,3.43-2.49,4.89-3.61a7,7,0,0,1,5.15-1.45,5.41,5.41,0,0,1,5.07,2.57l8,10a50,50,0,0,1-10,9.1,51.16,51.16,0,0,1-11.25,5.84,55.72,55.72,0,0,1-11.85,3.09,84,84,0,0,1-12.27.95,52.26,52.26,0,0,1-20.09-4,47.68,47.68,0,0,1-16.31-11.76,56,56,0,0,1-11.16-18.71,74.27,74.27,0,0,1-4.12-25.24,73.59,73.59,0,0,1,3.26-23.35,54,54,0,0,1,10.73-18.8,49.25,49.25,0,0,1,17.17-12.37,61.35,61.35,0,0,1,24.12-4.55,58.68,58.68,0,0,1,22.67,4.21,56.8,56.8,0,0,1,17.16,11.93Z"/><path class="b7e95f62-cdbc-4a06-a1d5-5508b04403ec" d="M1182.63,64.13a58.55,58.55,0,0,1,14.85-10.22,43.09,43.09,0,0,1,19-3.95,42,42,0,0,1,17.17,3.18,35,35,0,0,1,12.19,8.58,39.85,39.85,0,0,1,7.38,13.83,61.5,61.5,0,0,1,2.58,17.68v73.48h-28.16V93.66a25,25,0,0,0-4.81-16.31A18.17,18.17,0,0,0,1208,71.51a29.27,29.27,0,0,0-13.48,3.26,46.64,46.64,0,0,0-11.93,8.59V166.8h-27.82V0h27.82Z"/><path class="b7e95f62-cdbc-4a06-a1d5-5508b04403ec" d="M567.19,251.19a26.78,26.78,0,0,1,7.38-5.93,19.62,19.62,0,0,1,9.7-2.31,17.17,17.17,0,0,1,7.9,1.8,17.85,17.85,0,0,1,6.18,5.24,25.51,25.51,0,0,1,4,8.58,42.54,42.54,0,0,1,1.46,11.5,37.84,37.84,0,0,1-1.63,11,28.26,28.26,0,0,1-4.55,8.59,21.43,21.43,0,0,1-7.21,5.75,20.79,20.79,0,0,1-9.36,2.06,17.37,17.37,0,0,1-13.22-5.07v21.55H555.17V244H563a3.09,3.09,0,0,1,3.18,2.31Zm.69,32.1a12.47,12.47,0,0,0,4.72,3.7,14.62,14.62,0,0,0,5.58,1.11,12.52,12.52,0,0,0,5.15-1.11,9.59,9.59,0,0,0,3.95-3.27,15.86,15.86,0,0,0,2.49-5.58,32,32,0,0,0,.86-8,34.93,34.93,0,0,0-.69-7.9,15.56,15.56,0,0,0-2.15-5.23,8.56,8.56,0,0,0-3.34-2.92,11,11,0,0,0-4.55-1,13.13,13.13,0,0,0-6.79,1.72,20.65,20.65,0,0,0-5.23,4.72Z"/><path class="b7e95f62-cdbc-4a06-a1d5-5508b04403ec" d="M612.43,251.36a31.38,31.38,0,0,1,22-8.58,21.33,21.33,0,0,1,8.58,1.54,18.31,18.31,0,0,1,6.18,4.21,18,18,0,0,1,3.78,6.52,25.06,25.06,0,0,1,1.29,8.59v33.3h-5.75a5.77,5.77,0,0,1-2.75-.51,3.52,3.52,0,0,1-1.54-2.15l-1.12-3.86a41.62,41.62,0,0,1-4,3.18,20.83,20.83,0,0,1-4,2.31,18.75,18.75,0,0,1-4.38,1.38,25.48,25.48,0,0,1-5.23.51,19.86,19.86,0,0,1-6.18-.86,13.63,13.63,0,0,1-4.9-2.74,12.18,12.18,0,0,1-3.17-4.47,15.61,15.61,0,0,1-1.12-6.26,12.62,12.62,0,0,1,.69-4,10.44,10.44,0,0,1,2.14-3.78,17.23,17.23,0,0,1,4-3.43,27.07,27.07,0,0,1,5.93-2.75,48.33,48.33,0,0,1,8.58-2,77.09,77.09,0,0,1,10.73-.85v-3.09a11.55,11.55,0,0,0-2.32-7.9,8.07,8.07,0,0,0-6.52-2.58,14.12,14.12,0,0,0-5.07.78,16.92,16.92,0,0,0-3.6,1.63l-2.83,1.63a5.86,5.86,0,0,1-2.75.68,4,4,0,0,1-2.32-.68,5.29,5.29,0,0,1-1.46-1.63Zm29.19,23.35a62.63,62.63,0,0,0-9.27.94,24.6,24.6,0,0,0-6,1.72,8.55,8.55,0,0,0-3.26,2.58,5,5,0,0,0-1,3.09,5.4,5.4,0,0,0,2,4.8,8.48,8.48,0,0,0,5.15,1.46,15.26,15.26,0,0,0,6.78-1.37,20.64,20.64,0,0,0,5.58-4.29Z"/><path class="b7e95f62-cdbc-4a06-a1d5-5508b04403ec" d="M678.19,253.16a23.11,23.11,0,0,1,5.92-7.47,12.4,12.4,0,0,1,8-2.74,10,10,0,0,1,5.92,1.63l-.86,9.53a2.94,2.94,0,0,1-.68,1.28,2.14,2.14,0,0,1-1.38.43h-5.23a10.77,10.77,0,0,0-3.78.6,9.29,9.29,0,0,0-2.92,1.81,14.84,14.84,0,0,0-2.32,2.74,33.31,33.31,0,0,0-1.89,3.78v32.54H666V244h7.47a3.93,3.93,0,0,1,2.66.68,3.53,3.53,0,0,1,1,2.49Z"/><path class="b7e95f62-cdbc-4a06-a1d5-5508b04403ec" d="M722,297.63a14,14,0,0,1-10.56-3.86,15.26,15.26,0,0,1-3.69-10.48V253.51h-5.41a2.37,2.37,0,0,1-1.71-.69,2.49,2.49,0,0,1-.78-2v-5.06l8.59-1.37L711.16,230a2.55,2.55,0,0,1,.94-1.63,3.27,3.27,0,0,1,1.89-.6h6.52v16.66h14.17v9.1H720.43v28.58a5.51,5.51,0,0,0,1.29,4,4.27,4.27,0,0,0,3.26,1.38,4.67,4.67,0,0,0,2,0l1.46-.61,1-.51a1.3,1.3,0,0,1,.95,0,1,1,0,0,1,.85,0l.78.77,3.86,6.18a19.47,19.47,0,0,1-6.44,3.52A24.46,24.46,0,0,1,722,297.63Z"/><path class="b7e95f62-cdbc-4a06-a1d5-5508b04403ec" d="M791.17,243.12a28.49,28.49,0,0,1,10.64,2,22.3,22.3,0,0,1,8.58,5.33,24.77,24.77,0,0,1,5.33,8.58,36.31,36.31,0,0,1,0,22.58,24.53,24.53,0,0,1-5.33,8.58,22.52,22.52,0,0,1-8.58,5.41,28.25,28.25,0,0,1-10.64,1.89,29.14,29.14,0,0,1-10.82-1.89,23.38,23.38,0,0,1-8.59-5.41,24.65,24.65,0,0,1-5.32-8.58,34.41,34.41,0,0,1,0-22.58,24.89,24.89,0,0,1,5.32-8.58,23.14,23.14,0,0,1,8.59-5.33A29.42,29.42,0,0,1,791.17,243.12Zm0,44.72a11.14,11.14,0,0,0,9.7-4.55,22,22,0,0,0,3.17-13,22.1,22.1,0,0,0-3.17-12.79,10.89,10.89,0,0,0-9.7-4.46,11.4,11.4,0,0,0-10,4.46,22.4,22.4,0,0,0-3.18,13,22,22,0,0,0,3.18,12.7A11.57,11.57,0,0,0,791.17,287.84Z"/><path class="b7e95f62-cdbc-4a06-a1d5-5508b04403ec" d="M829.37,296.77V253.85l-4.64-.69a5.06,5.06,0,0,1-2.4-1,2.56,2.56,0,0,1-.86-2.14v-5.24h7.9v-4.38a21.77,21.77,0,0,1,1.37-8.15A16.4,16.4,0,0,1,834.6,226a18.38,18.38,0,0,1,6.7-3.7,27.28,27.28,0,0,1,15.37-.34v6.44a2.32,2.32,0,0,1,0,1.11,2.4,2.4,0,0,1-.95.69h-3a14.14,14.14,0,0,0-4,.52,7,7,0,0,0-3,1.71,7.38,7.38,0,0,0-1.89,3.18,16.74,16.74,0,0,0-.69,5v3.43h13.74v9.1H842.07v42.93Z"/><path class="b7e95f62-cdbc-4a06-a1d5-5508b04403ec" d="M901.39,233.33V254h25.76v10.65H901.39v21h33.05v11.07H887.66V222.34h47v11Z"/><path class="b7e95f62-cdbc-4a06-a1d5-5508b04403ec" d="M960.46,297.63a14.08,14.08,0,0,1-10.65-3.86A15.21,15.21,0,0,1,946.2,283V253.51h-5.4a2.42,2.42,0,0,1-2.51-2.31,2.17,2.17,0,0,1,0-.36v-5.06l8.58-1.37L949.55,230a3.16,3.16,0,0,1,1-1.63,3.27,3.27,0,0,1,1.89-.6H959v16.66h22L983.72,230a2.6,2.6,0,0,1,.94-1.63,3.13,3.13,0,0,1,1.89-.6h6.53v16.66h14.08v9.1H993.08v28.58a6,6,0,0,0,1.2,4,4.58,4.58,0,0,0,3.35,1.38,4.67,4.67,0,0,0,2,0l1.46-.61,1-.51a1.41,1.41,0,0,1,.95,0,1.27,1.27,0,0,1,.94,0l.77.77,3.78,6.18a19,19,0,0,1-6.35,3.52,24,24,0,0,1-7.47,1.2,14.09,14.09,0,0,1-10.65-3.86,14.85,14.85,0,0,1-3.69-10.73V253.51H958.91v28.58a6,6,0,0,0,1.2,4,4.33,4.33,0,0,0,3.35,1.38,5,5,0,0,0,2,0l1.38-.61,1-.51a1.38,1.38,0,0,1,.94,0,1.3,1.3,0,0,1,1,0,3.13,3.13,0,0,1,.77.77l3.78,6.18a18.41,18.41,0,0,1-6.36,3.52A24.43,24.43,0,0,1,960.46,297.63Z"/><path class="b7e95f62-cdbc-4a06-a1d5-5508b04403ec" d="M1024.58,272a26,26,0,0,0,1.46,7,15.47,15.47,0,0,0,3,4.9,11.89,11.89,0,0,0,4.38,2.91,17,17,0,0,0,5.66.95,16.25,16.25,0,0,0,5.32-.77,20.64,20.64,0,0,0,3.95-1.55l2.92-1.63a5.5,5.5,0,0,1,2.41-.69,2.67,2.67,0,0,1,2.4,1.21l3.69,4.63a21.55,21.55,0,0,1-4.81,4.12,25.89,25.89,0,0,1-5.41,2.66,35.52,35.52,0,0,1-5.83,1.46,42.44,42.44,0,0,1-5.75,0,29,29,0,0,1-10.31-1.8,23.69,23.69,0,0,1-8.58-5.41,26.25,26.25,0,0,1-5.5-8.58,35.87,35.87,0,0,1-2-12.28,30.12,30.12,0,0,1,1.72-10.13,24.85,24.85,0,0,1,5.06-8.58,23.36,23.36,0,0,1,8-5.58,25.59,25.59,0,0,1,10.64-2.06,24.89,24.89,0,0,1,9.19,1.63,19.51,19.51,0,0,1,7.29,4.63,21.67,21.67,0,0,1,4.72,7.56,28.18,28.18,0,0,1,1.72,10.13,8.63,8.63,0,0,1-.6,3.95,2.76,2.76,0,0,1-2.4.94Zm24.3-7.64a16.48,16.48,0,0,0-.69-4.63,11.84,11.84,0,0,0-2.06-3.87,9.32,9.32,0,0,0-3.6-2.57,10.77,10.77,0,0,0-4.9-1,12.18,12.18,0,0,0-8.58,3.17,15.73,15.73,0,0,0-4,8.59Z"/><path class="b7e95f62-cdbc-4a06-a1d5-5508b04403ec" d="M1081.67,251.19a25.19,25.19,0,0,1,7.3-5.93,19.6,19.6,0,0,1,9.87-2.31,17.17,17.17,0,0,1,7.9,1.8,17.94,17.94,0,0,1,6.18,5.24,25.68,25.68,0,0,1,4,8.58,41.76,41.76,0,0,1,1.46,11.5,37.18,37.18,0,0,1-1.63,11,26.5,26.5,0,0,1-4.55,8.59,21.24,21.24,0,0,1-7.21,5.75,20.74,20.74,0,0,1-9.36,2.06,19.69,19.69,0,0,1-7.55-1.29,21.12,21.12,0,0,1-5.67-3.78v21.55h-12.7V244h7.81a3.17,3.17,0,0,1,3.26,2.31Zm.86,32.1a13.12,13.12,0,0,0,4.72,3.7,15,15,0,0,0,5.58,1.11A12.52,12.52,0,0,0,1098,287a9.59,9.59,0,0,0,4-3.27,14.35,14.35,0,0,0,2.49-5.58,31.56,31.56,0,0,0,.94-8,34.43,34.43,0,0,0-.77-7.9,15.54,15.54,0,0,0-2.14-5.23,8.59,8.59,0,0,0-3.35-2.92,11,11,0,0,0-4.55-1,12.6,12.6,0,0,0-6.7,1.72,20.66,20.66,0,0,0-5.32,4.72Z"/><path class="b7e95f62-cdbc-4a06-a1d5-5508b04403ec" d="M1141.25,220.28v76.49h-12.71V220.28Z"/><path class="b7e95f62-cdbc-4a06-a1d5-5508b04403ec" d="M1152.75,251.36a31.16,31.16,0,0,1,21.89-8.58,21.41,21.41,0,0,1,8.59,1.54,18.31,18.31,0,0,1,6.18,4.21,19.59,19.59,0,0,1,3.86,6.52,25.06,25.06,0,0,1,1.29,8.59v33.3h-5.75a6.38,6.38,0,0,1-2.83-.51,4.34,4.34,0,0,1-1.55-2.15l-1.12-3.86a39.24,39.24,0,0,1-4,3.18,18.33,18.33,0,0,1-3.94,2.31,18.75,18.75,0,0,1-4.38,1.38,23.5,23.5,0,0,1-5.15.51,19.86,19.86,0,0,1-6.18-.86,13.63,13.63,0,0,1-4.9-2.74,12.25,12.25,0,0,1-3.26-4.47,17.08,17.08,0,0,1-1.2-6.44,12.61,12.61,0,0,1,.69-3.94,11.81,11.81,0,0,1,2.14-3.78,19.93,19.93,0,0,1,4-3.44,26.53,26.53,0,0,1,6-2.74,45.59,45.59,0,0,1,8.16-2,78.53,78.53,0,0,1,10.73-.86v-3.09a12,12,0,0,0-2.24-7.89,8.56,8.56,0,0,0-6.52-2.58,14.77,14.77,0,0,0-5.15.77,17.76,17.76,0,0,0-3.61,1.63l-2.83,1.64a5.77,5.77,0,0,1-2.75.51,4,4,0,0,1-2.31-.69,5.07,5.07,0,0,1-1.46-1.63Zm29.1,23.35a62.77,62.77,0,0,0-9.27.94,26.29,26.29,0,0,0-6,1.72,8.55,8.55,0,0,0-3.26,2.58,5.64,5.64,0,0,0-.94,3.09,5.4,5.4,0,0,0,2,4.8,8.5,8.5,0,0,0,5.15,1.46,14.93,14.93,0,0,0,6.78-1.37,20.49,20.49,0,0,0,5.58-4.29Z"/><path class="b7e95f62-cdbc-4a06-a1d5-5508b04403ec" d="M1218.17,250.42a34.51,34.51,0,0,1,3.35-2.92,17,17,0,0,1,3.77-2.32,21.63,21.63,0,0,1,4.21-1.46,18.17,18.17,0,0,1,5-.6,19.6,19.6,0,0,1,7.64,1.46,16,16,0,0,1,5.58,4.12,18.23,18.23,0,0,1,3.43,6.35,27.17,27.17,0,0,1,1.12,8.16v33.56h-12.71V263.21a11.16,11.16,0,0,0-2.23-7.56,8.59,8.59,0,0,0-6.69-2.66,12.64,12.64,0,0,0-6.19,1.55,20.12,20.12,0,0,0-5.49,4v38.2h-12.7V244h7.81a3.08,3.08,0,0,1,3.17,2.31Z"/></g></g></g></g></svg>